<svg width="293" height="117" viewBox="0 0 293 117" fill="none" xmlns="http://www.w3.org/2000/svg">
<rect x="2.5" y="7" width="107" height="103" stroke="#0E76BD" stroke-width="5"/>
<path d="M164.196 30.5938H157.974C157.861 29.7888 157.629 29.0739 157.278 28.4489C156.928 27.8144 156.478 27.2746 155.929 26.8295C155.38 26.3845 154.745 26.0436 154.026 25.8068C153.315 25.5701 152.544 25.4517 151.71 25.4517C150.205 25.4517 148.893 25.8258 147.776 26.5739C146.658 27.3125 145.792 28.392 145.176 29.8125C144.561 31.2235 144.253 32.9375 144.253 34.9545C144.253 37.0284 144.561 38.7708 145.176 40.1818C145.801 41.5928 146.672 42.6581 147.79 43.3778C148.907 44.0975 150.2 44.4574 151.668 44.4574C152.491 44.4574 153.254 44.3485 153.955 44.1307C154.665 43.9129 155.295 43.5956 155.844 43.179C156.393 42.7528 156.848 42.2367 157.207 41.6307C157.577 41.0246 157.832 40.3333 157.974 39.5568L164.196 39.5852C164.035 40.9205 163.633 42.2083 162.989 43.4489C162.354 44.6799 161.497 45.7831 160.418 46.7585C159.348 47.7244 158.069 48.4915 156.582 49.0597C155.105 49.6184 153.434 49.8977 151.568 49.8977C148.973 49.8977 146.653 49.3106 144.608 48.1364C142.572 46.9621 140.962 45.2623 139.778 43.0369C138.604 40.8116 138.017 38.1174 138.017 34.9545C138.017 31.7822 138.614 29.0833 139.807 26.858C141 24.6326 142.619 22.9375 144.665 21.7727C146.71 20.5985 149.011 20.0114 151.568 20.0114C153.254 20.0114 154.816 20.2481 156.256 20.7216C157.705 21.1951 158.988 21.8864 160.105 22.7955C161.223 23.6951 162.132 24.7983 162.832 26.1051C163.543 27.4119 163.997 28.9081 164.196 30.5938ZM178.351 49.9261C176.144 49.9261 174.236 49.4574 172.626 48.5199C171.026 47.5729 169.79 46.2566 168.919 44.571C168.048 42.8759 167.612 40.911 167.612 38.6761C167.612 36.4223 168.048 34.4527 168.919 32.767C169.79 31.072 171.026 29.7557 172.626 28.8182C174.236 27.8712 176.144 27.3977 178.351 27.3977C180.557 27.3977 182.461 27.8712 184.061 28.8182C185.671 29.7557 186.911 31.072 187.783 32.767C188.654 34.4527 189.089 36.4223 189.089 38.6761C189.089 40.911 188.654 42.8759 187.783 44.571C186.911 46.2566 185.671 47.5729 184.061 48.5199C182.461 49.4574 180.557 49.9261 178.351 49.9261ZM178.379 45.2386C179.383 45.2386 180.221 44.9545 180.893 44.3864C181.566 43.8087 182.072 43.0227 182.413 42.0284C182.764 41.0341 182.939 39.9025 182.939 38.6335C182.939 37.3646 182.764 36.233 182.413 35.2386C182.072 34.2443 181.566 33.4583 180.893 32.8807C180.221 32.303 179.383 32.0142 178.379 32.0142C177.366 32.0142 176.514 32.303 175.822 32.8807C175.141 33.4583 174.625 34.2443 174.274 35.2386C173.933 36.233 173.763 37.3646 173.763 38.6335C173.763 39.9025 173.933 41.0341 174.274 42.0284C174.625 43.0227 175.141 43.8087 175.822 44.3864C176.514 44.9545 177.366 45.2386 178.379 45.2386ZM137.42 73.4801V68.4091H161.312V73.4801H152.406V97.5H146.327V73.4801H137.42ZM171.185 84.8864V97.5H165.134V68.4091H171.014V79.5312H171.27C171.762 78.2434 172.558 77.2348 173.656 76.5057C174.755 75.767 176.133 75.3977 177.79 75.3977C179.305 75.3977 180.626 75.7292 181.753 76.392C182.889 77.0455 183.77 77.9877 184.395 79.2188C185.029 80.4403 185.342 81.9034 185.332 83.608V97.5H179.281V84.6875C179.291 83.3428 178.95 82.2964 178.259 81.5483C177.577 80.8002 176.62 80.4261 175.389 80.4261C174.565 80.4261 173.836 80.6013 173.202 80.9517C172.577 81.3021 172.084 81.8134 171.724 82.4858C171.374 83.1487 171.194 83.9489 171.185 84.8864ZM190.094 97.5V75.6818H196.146V97.5H190.094ZM193.134 72.8693C192.235 72.8693 191.463 72.571 190.819 71.9744C190.184 71.3684 189.867 70.6439 189.867 69.8011C189.867 68.9678 190.184 68.2528 190.819 67.6562C191.463 67.0502 192.235 66.7472 193.134 66.7472C194.034 66.7472 194.801 67.0502 195.435 67.6562C196.079 68.2528 196.401 68.9678 196.401 69.8011C196.401 70.6439 196.079 71.3684 195.435 71.9744C194.801 72.571 194.034 72.8693 193.134 72.8693ZM207.044 84.8864V97.5H200.993V75.6818H206.76V79.5312H207.016C207.499 78.2623 208.308 77.2585 209.445 76.5199C210.581 75.7718 211.959 75.3977 213.578 75.3977C215.093 75.3977 216.414 75.7292 217.541 76.392C218.668 77.0549 219.544 78.0019 220.169 79.233C220.794 80.4545 221.107 81.9129 221.107 83.608V97.5H215.055V84.6875C215.065 83.3523 214.724 82.3106 214.033 81.5625C213.341 80.8049 212.39 80.4261 211.178 80.4261C210.363 80.4261 209.643 80.6013 209.018 80.9517C208.403 81.3021 207.92 81.8134 207.57 82.4858C207.229 83.1487 207.054 83.9489 207.044 84.8864ZM231.359 91.2216L231.373 83.9631H232.254L239.242 75.6818H246.188L236.799 86.6477H235.364L231.359 91.2216ZM225.876 97.5V68.4091H231.927V97.5H225.876ZM239.512 97.5L233.092 87.9972L237.126 83.7216L246.6 97.5H239.512Z" fill="#0E76BD"/>
<path d="M72.2487 55.9848H96V100H83.8786V66.3598H64.4033L72.2487 55.9848Z" fill="#0E76BD"/>
<path d="M51.4084 36.4924H75.1597V100H63.0383V46.5049H42.8907L51.4084 36.4924Z" fill="#0E76BD"/>
<path d="M25.9373 17H53.6471V100H39.5055V30.0856H16L25.9373 17Z" fill="#0E76BD"/>
</svg>
